Simulation
nRows=38
nColumns=15
endheader
time  TH_x TH_y TH_z SC_y  SC_z  SC_x  AC_y  AC_z  AC_x  GH_y  GH_z  GH_yy  EL_x  PS_y
2.6910411985018725  0.000000  0.000000  0.000000  -23.73629844686657  4.316529456795183  -2.9316072006002902  56.53870343188316  8.702400610753005  4.966681010047505  -4.436996879552154  3.367328016759131  33.979080793139026  15.890376976733858  120.000000
2.7312059925093632  0.000000  0.000000  0.000000  -23.53388180440785  4.271975906159937  -2.89015667051847  57.10040807627743  9.037111752210123  5.319228913624291  3.066928853325274  1.7397131580497116  28.7364657793346  16.637899310408603  120.000000
2.771370786516854  0.000000  0.000000  0.000000  -23.491858459547615  4.290824404683119  -2.7787795788155525  57.58436689179614  9.348382118179252  5.627807367497706  60.92350421851444  0.4913308535789314  -27.067296459214408  17.300135584561605  120.000000
2.8115355805243447  0.000000  0.000000  0.000000  -23.571611676310056  4.360083469395522  -2.624955457393971  57.990202663808034  9.623497163686677  5.885979379620134  147.82426891765246  1.3644936781072285  -112.11640047879553  17.85204778958959  120.000000
2.851700374531835  0.000000  0.000000  0.000000  -23.736383936859998  4.466402228914603  -2.4457638905442343  58.32088100545452  9.85745567152146  6.093335447314284  158.48078854295485  2.6349476705994364  -121.10903615070093  18.27860458793111  120.000000
2.8918651685393257  0.000000  0.000000  0.000000  -23.954704302024325  4.597586243019259  -2.2494541478206633  58.58285242459587  10.052601285390748  6.25351775236449  162.63246096117348  3.8238716420251526  -123.77147720739006  18.575503519500522  120.000000
2.9320299625468165  0.000000  0.000000  0.000000  -24.20063649778481  4.743064436045295  -2.0389859511085975  58.783919477639415  10.214645866724744  6.372818030969483  165.21482093078214  4.908235235850596  -125.02792530505282  18.748658188210406  120.000000
2.972194756554307  0.000000  0.000000  0.000000  -24.453930344309327  4.893668967382348  -1.8157015729174604  58.9324550770484  10.349250812628664  6.458042149976153  167.16566538412235  5.883126950556709  -125.80653830558946  18.812059614164976  120.000000
3.012359550561798  0.000000  0.000000  0.000000  -24.699415652502342  5.041947133041673  -1.5812562790260285  59.03619382117104  10.460468380787578  6.5150834139479565  168.78617546006495  6.7481582181138515  -126.39933495208939  18.785744269598336  120.000000
3.0525243445692882  0.000000  0.000000  0.000000  -24.927649578335377  5.183497423947561  -1.3387419436635295  59.10237908040215  10.550293572922852  6.547616481438073  170.20233467256784  7.505576813366029  -126.92386371255911  18.692888088025374  120.000000
3.092689138576779  0.000000  0.000000  0.000000  -25.13341200119171  5.3164341333530984  -1.0926083845908448  59.1372723712863  10.619213765204398  6.557277616154037  171.4743079276269  8.159554963244721  -127.43176226253911  18.557130856033243  120.000000
3.1328539325842697  0.000000  0.000000  0.000000  -25.314263789319536  5.439425938584983  -0.8478242304125048  59.1458618987891  10.66678706732423  6.545230132629266  172.63070554489553  8.71547571456626  -127.94290030505402  18.39975614539213  120.000000
3.1730187265917604  0.000000  0.000000  0.000000  -25.469800868222272  5.551276572599067  -0.6091698654455052  59.13211227760932  10.691902233932705  6.5131750684404635  173.68052735831319  9.179518654189751  -128.45745115383212  18.237781514746654  120.000000
3.2131835205992507  0.000000  0.000000  0.000000  -25.600305943427642  5.650666276945758  -0.38114190304612133  59.09935220161903  10.693280275298164  6.463467095386837  174.62221849550414  9.557998717471325  -128.96507295290175  18.082668380618294  120.000000
3.2533483146067415  0.000000  0.000000  0.000000  -25.706321027624192  5.736469716010009  -0.16763175242744505  59.05058413935696  10.669933099596182  6.398836204514175  175.4493645573446  9.856651178768194  -129.45090650818875  17.940159348048635  120.000000
3.293513108614232  0.000000  0.000000  0.000000  -25.788349183621907  5.808361371857216  0.02809081346156066  58.98882470138315  10.621483489411991  6.321689897397757  176.15344306039452  10.080114281452524  -129.89856125968882  17.811384836908  120.000000
3.333677902621723  0.000000  0.000000  0.000000  -25.846730453832862  5.86652557126929  0.20336420060215818  58.91680385287688  10.547997850907588  6.234024281405744  176.72902738192957  10.231973402480198  -130.29516419831876  17.694525822485556  120.000000
3.3738426966292137  0.000000  0.000000  0.000000  -25.882033051711698  5.911355590712518  0.3560157142873398  58.83670948432575  10.449753771005009  6.137631449241279  177.1740557538101  10.314926783106698  -130.6317610840219  17.586627411410166  120.000000
3.414007490636704  0.000000  0.000000  0.000000  -25.895037467952708  5.9433227938217845  0.4844058553633484  58.75012675458427  10.327278767445787  6.034209677144503  177.48966413014202  10.330834160469252  -130.90321794712094  17.485013879942432  120.000000
3.4541722846441947  0.000000  0.000000  0.000000  -25.886795762419904  5.962959422655746  0.587449982501492  58.65801988775969  10.181433109748832  5.925388152016175  177.6796301554603  10.280673955561243  -131.1077613484249  17.388030891607997  120.000000
3.4943370786516854  0.000000  0.000000  0.000000  -25.85861842916151  5.970834911376475  0.664628353151574  58.56085278782689  10.013445174695375  5.812723952650476  177.74960981841133  10.1645951396142  -131.2463073430457  17.295034085542845  120.000000
3.534501872659176  0.000000  0.000000  0.000000  -25.8120309123971  5.967586462382707  0.7159123428696184  58.45876733996751  9.824892961293084  5.697691018096087  177.70612054250276  9.981962092290413  -131.32149440128126  17.205816262346822  120.000000
3.574666666666667  0.000000  0.000000  0.000000  -25.7486333601448  5.9539729323360335  0.7417147446432526  58.3519497225737  9.617711755542217  5.581532815312901  177.5552056661187  9.731427715036302  -131.33640912741353  17.119733996381722  120.000000
3.614831460674157  0.000000  0.000000  0.000000  -25.6700177449865  5.930900485088083  0.7427279063630009  58.24066783989197  9.394217979880214  5.465365111282524  177.30193122528166  9.411026999433918  -131.2941077062723  17.034728691572102  120.000000
3.654996254681648  0.000000  0.000000  0.000000  -25.577630455334806  5.899271897948291  0.7199807822246664  58.12519496913431  9.157103387106773  5.350282141307822  176.95086315679612  9.018264360578726  -131.19807300357968  16.946612003223706  120.000000
3.6951610486891386  0.000000  0.000000  0.000000  -25.47233511347162  5.859977745851248  0.6749388794692655  58.00590543977061  8.909540719274657  5.237400519339604  176.50445659198374  8.550232063438138  -131.0505936645605  16.84891518427106  120.000000
3.7353258426966294  0.000000  0.000000  0.000000  -25.354158399760962  5.813905230418896  0.6092856478002793  57.88337501387093  8.655279112836876  5.128193921210583  175.9602188696927  8.003851415649187  -130.85000249683296  16.733335355211103  120.000000
3.7754906367041197  0.000000  0.000000  0.000000  -25.221605066300693  5.761315390045069  0.5247992629328773  57.7585042353259  8.398126789848922  5.024383340432488  175.31024974554217  7.3764764801244125  -130.5900983869412  16.590759924188124  120.000000
3.8156554307116104  0.000000  0.000000  0.000000  -25.071647189539856  5.7023937256185935  0.4228032326388237  57.63288174209054  8.141673683343203  4.927793099220697  174.53536115639977  6.666502572353001  -130.2544505239047  16.412163449719273  120.000000
3.855820224719101  0.000000  0.000000  0.000000  -24.899886711791034  5.63812042301969  0.3042359486174425  57.508116931670216  7.890056422267606  4.839899506623059  173.60014322320683  5.872921055877519  -129.81128974482502  16.189547547113325  120.000000
3.895985018726592  0.000000  0.000000  0.000000  -24.699989468915593  5.57005685543738  0.17039527961521966  57.384904778974246  7.649117994531572  4.761523788863165  172.44209865682367  4.9948364030823225  -129.20217313468783  15.91637288060634  120.000000
3.9361498127340826  0.000000  0.000000  0.000000  -24.46413439474835  5.500759393825863  0.02380481399354057  57.26338347282211  7.426887885554115  4.693499225285876  170.90687638712527  4.03143991901688  -128.27745723904667  15.588728217685533  120.000000
3.976314606741573  0.000000  0.000000  0.000000  -24.185129879477927  5.4342352511541785  -0.13061635592811013  57.142805946212285  7.234160499560937  4.636949851154572  168.5046851489174  2.9821596607811816  -126.5551096917714  15.207053603849529  120.000000
4.016479400749064  0.000000  0.000000  0.000000  -23.86129979474498  5.375285580321563  -0.2840801473691747  57.01926531857694  7.0851589200894045  4.593193462167333  163.26881339432566  1.8495057285775012  -122.0820554630711  14.777186771766026  120.000000
4.056644194756554  0.000000  0.000000  0.000000  -23.497845207723365  5.330078430426448  -0.4235968554373675  56.88548774874866  6.997712685662176  4.564047256185281  138.58856235263596  0.6913355933219674  -98.26507108734285  14.310659186667054  120.000000
4.096808988764045  0.000000  0.000000  0.000000  -23.102344679371825  5.307684488833833  -0.5337967082910409  56.73405275474827  6.992807817106462  4.551277309744133  23.727788783803074  0.9264573183010832  15.61618123744947  13.823947471699984  120.000000
4.136973782771536  0.000000  0.000000  0.000000  -22.68342987274118  5.320080012372016  -0.5997956507992462  56.560855892908855  7.092223668023272  4.555330302925758  6.826225587928801  2.3594507096262594  31.411256791855642  13.337932905249508  120.000000
4.177138576779027  0.000000  0.000000  0.000000  -22.251496966987165  5.379086738497434  -0.6092328550192785  56.36535963979032  7.313293278126944  4.576520799151436  2.5821054057333517  3.9815030070898128  34.41792620419042  12.875649050222139  120.000000
